<?xml version="1.0" standalone="no"?><!DOCTYPE svg PUBLIC "-//W3C//DTD SVG 1.1//EN" "http://www.w3.org/Graphics/SVG/1.1/DTD/svg11.dtd"><svg class="icon" width="200px" height="200.00px" viewBox="0 0 1024 1024" version="1.1" xmlns="http://www.w3.org/2000/svg"><path fill="#333333" d="M932.065 123.639h-840.129c-47.554 0-87.183 39.629-87.183 87.183v634.059c0 47.554 39.629 87.183 87.183 87.183h837.487c47.554 0 87.183-39.629 87.183-87.183v-634.059c0-50.196-36.987-87.183-84.541-87.183zM963.768 842.239c0 18.493-15.852 34.345-34.345 34.345h-837.487c-18.493 0-34.345-15.852-34.345-34.345v-457.051h903.535v457.051zM963.768 332.35h-903.535v-124.17c0-18.493 15.852-34.345 34.345-34.345h837.487c18.493 0 34.345 15.852 34.345 34.345v124.17z"  /><path fill="#333333" d="M163.267 765.624h118.887c15.852 0 26.419-10.568 26.419-26.419s-10.568-26.419-26.419-26.419h-118.887c-15.852 0-26.419 10.568-26.419 26.419 0 13.209 10.568 26.419 26.419 26.419zM625.602 802.611c18.493 0 36.987-7.926 47.554-21.135l-15.852-18.493c-7.926 7.926-18.493 15.852-31.703 15.852-23.778 0-39.629-21.135-39.629-52.839 0-31.703 18.493-52.839 39.629-52.839 10.568 0 21.135 5.284 29.061 13.209l15.852-18.493c-10.568-10.568-26.419-18.493-44.913-18.493-39.629 0-71.332 29.061-71.332 79.257 2.642 44.913 34.345 73.974 71.332 73.974zM733.921 802.611c36.987 0 58.122-21.135 58.122-71.332v-84.541h-29.061v87.183c0 31.703-10.568 42.27-29.061 42.27s-29.061-10.568-29.061-42.27v-87.183h-29.061v84.541c0 50.196 21.135 71.332 58.122 71.332zM839.598 744.489h21.135c31.703 0 58.122-15.852 58.122-50.196 0-36.987-26.419-47.554-60.764-47.554h-50.196v150.589h29.061v-52.839zM839.598 670.515h15.852c21.135 0 31.703 5.284 31.703 23.778s-10.568 26.419-31.703 26.419h-18.493v-50.196z"  /></svg>